{
  "accessors": [
    {
      "bufferView": 2,
      "componentType": 5126,
      "count": 9924,
      "max": [
        82.2479019165039,
        11.387900352478027,
        889.2938232421875
      ],
      "min": [
        -82.2479019165039,
        -11.387999534606934,
        304.80731201171875
      ],
      "type": "VEC3"
    },
    {
      "bufferView": 2,
      "byteOffset": 119088,
      "componentType": 5126,
      "count": 9924,
      "max": [
        1.0,
        1.0,
        1.0
      ],
      "min": [
        -1.0,
        -1.0,
        -1.0
      ],
      "type": "VEC3"
    },
    {
      "bufferView": 1,
      "componentType": 5126,
      "count": 9924,
      "max": [
        0.8149999976158142,
        0.7978000044822693
      ],
      "min": [
        0.0,
        -1.8600000143051147
      ],
      "type": "VEC2"
    },
    {
      "bufferView": 0,
      "componentType": 5125,
      "count": 46224,
      "type": "SCALAR"
    },
    {
      "bufferView": 2,
      "byteOffset": 238176,
      "componentType": 5126,
      "count": 4607,
      "max": [
        82.2479019165039,
        22.364200592041016,
        499.1460876464844
      ],
      "min": [
        -82.2479019165039,
        -22.364200592041016,
        231.62210083007813
      ],
      "type": "VEC3"
    },
    {
      "bufferView": 2,
      "byteOffset": 293460,
      "componentType": 5126,
      "count": 4607,
      "max": [
        1.0,
        1.0,
        1.0
      ],
      "min": [
        -1.0,
        -1.0,
        -1.0
      ],
      "type": "VEC3"
    },
    {
      "bufferView": 1,
      "byteOffset": 79392,
      "componentType": 5126,
      "count": 4607,
      "max": [
        1.048699975013733,
        1.0128999948501587
      ],
      "min": [
        0.15970000624656677,
        -1.8569999933242798
      ],
      "type": "VEC2"
    },
    {
      "bufferView": 0,
      "byteOffset": 184896,
      "componentType": 5125,
      "count": 16332,
      "type": "SCALAR"
    },
    {
      "bufferView": 2,
      "byteOffset": 348744,
      "componentType": 5126,
      "count": 8235,
      "max": [
        74.11579895019531,
        74.11579895019531,
        433.84478759765625
      ],
      "min": [
        -74.11579895019531,
        -74.11579895019531,
        304.3268127441406
      ],
      "type": "VEC3"
    },
    {
      "bufferView": 2,
      "byteOffset": 447564,
      "componentType": 5126,
      "count": 8235,
      "max": [
        1.0,
        1.0,
        1.0
      ],
      "min": [
        -1.0,
        -1.0,
        -1.0
      ],
      "type": "VEC3"
    },
    {
      "bufferView": 1,
      "byteOffset": 116248,
      "componentType": 5126,
      "count": 8235,
      "max": [
        1.020799994468689,
        0.9994999766349792
      ],
      "min": [
        -0.0,
        0.0005000000237487257
      ],
      "type": "VEC2"
    },
    {
      "bufferView": 0,
      "byteOffset": 250224,
      "componentType": 5125,
      "count": 42624,
      "type": "SCALAR"
    },
    {
      "bufferView": 2,
      "byteOffset": 546384,
      "componentType": 5126,
      "count": 9072,
      "max": [
        235.0532989501953,
        235.0532989501953,
        312.5082092285156
      ],
      "min": [
        -235.0532989501953,
        -235.05340576171875,
        -0.08479999750852585
      ],
      "type": "VEC3"
    },
    {
      "bufferView": 2,
      "byteOffset": 655248,
      "componentType": 5126,
      "count": 9072,
      "max": [
        1.0,
        1.0,
        1.0
      ],
      "min": [
        -1.0,
        -1.0,
        -1.0
      ],
      "type": "VEC3"
    },
    {
      "bufferView": 1,
      "byteOffset": 182128,
      "componentType": 5126,
      "count": 9072,
      "max": [
        5.056000232696533,
        1.6917999982833862
      ],
      "min": [
        -2.055999994277954,
        -0.6789000034332275
      ],
      "type": "VEC2"
    },
    {
      "bufferView": 0,
      "byteOffset": 420720,
      "componentType": 5125,
      "count": 49344,
      "type": "SCALAR"
    },
    {
      "bufferView": 2,
      "byteOffset": 764112,
      "componentType": 5126,
      "count": 7501,
      "max": [
        52.999698638916016,
        52.999698638916016,
        1017.8681030273438
      ],
      "min": [
        -52.999698638916016,
        -52.99980163574219,
        288.01629638671875
      ],
      "type": "VEC3"
    },
    {
      "bufferView": 2,
      "byteOffset": 854124,
      "componentType": 5126,
      "count": 7501,
      "max": [
        1.0,
        1.0,
        1.0
      ],
      "min": [
        -1.0,
        -1.0,
        -1.0
      ],
      "type": "VEC3"
    },
    {
      "bufferView": 1,
      "byteOffset": 254704,
      "componentType": 5126,
      "count": 7501,
      "max": [
        1.75,
        1.0
      ],
      "min": [
        0.0,
        -0.09279999881982803
      ],
      "type": "VEC2"
    },
    {
      "bufferView": 0,
      "byteOffset": 618096,
      "componentType": 5125,
      "count": 37896,
      "type": "SCALAR"
    }
  ],
  "asset": {
    "extras": {
      "author": "fedomo.ru (https://sketchfab.com/fedomo)",
      "license": "CC-BY-4.0 (http://creativecommons.org/licenses/by/4.0/)",
      "source": "https://sketchfab.com/3d-models/favourite-518959c3cff14f21a4d442c37274f6ca",
      "title": "Светильник подвесной Favourite"
    },
    "generator": "Sketchfab-16.54.0",
    "version": "2.0"
  },
  "bufferViews": [
    {
      "buffer": 0,
      "byteLength": 769680,
      "name": "floatBufferViews",
      "target": 34963
    },
    {
      "buffer": 0,
      "byteLength": 314712,
      "byteOffset": 769680,
      "byteStride": 8,
      "name": "floatBufferViews",
      "target": 34962
    },
    {
      "buffer": 0,
      "byteLength": 944136,
      "byteOffset": 1084392,
      "byteStride": 12,
      "name": "floatBufferViews",
      "target": 34962
    }
  ],
  "buffers": [
    {
      "byteLength": 2028528,
      "uri": "l.bin"
    }
  ],
  "materials": [
    {
      "doubleSided": true,
      "name": "material_0",
      "pbrMetallicRoughness": {
        "metallicFactor": 0.0,
        "roughnessFactor": 0.6
      }
    }
  ],
  "meshes": [
    {
      "name": "Object_0",
      "primitives": [
        {
          "attributes": {
            "NORMAL": 1,
            "POSITION": 0,
            "TEXCOORD_0": 2
          },
          "indices": 3,
          "material": 0,
          "mode": 4
        }
      ]
    },
    {
      "name": "Object_1",
      "primitives": [
        {
          "attributes": {
            "NORMAL": 5,
            "POSITION": 4,
            "TEXCOORD_0": 6
          },
          "indices": 7,
          "material": 0,
          "mode": 4
        }
      ]
    },
    {
      "name": "Object_2",
      "primitives": [
        {
          "attributes": {
            "NORMAL": 9,
            "POSITION": 8,
            "TEXCOORD_0": 10
          },
          "indices": 11,
          "material": 0,
          "mode": 4
        }
      ]
    },
    {
      "name": "Object_3",
      "primitives": [
        {
          "attributes": {
            "NORMAL": 13,
            "POSITION": 12,
            "TEXCOORD_0": 14
          },
          "indices": 15,
          "material": 0,
          "mode": 4
        }
      ]
    },
    {
      "name": "Object_4",
      "primitives": [
        {
          "attributes": {
            "NORMAL": 17,
            "POSITION": 16,
            "TEXCOORD_0": 18
          },
          "indices": 19,
          "material": 0,
          "mode": 4
        }
      ]
    }
  ],
  "nodes": [
    {
      "children": [
        1
      ],
      "matrix": [
        1.0,
        0.0,
        0.0,
        0.0,
        0.0,
        2.220446049250313e-16,
        -1.0,
        0.0,
        0.0,
        1.0,
        2.220446049250313e-16,
        0.0,
        0.0,
        0.0,
        0.0,
        1.0
      ],
      "name": "Sketchfab_model"
    },
    {
      "children": [
        2,
        3,
        4,
        5,
        6
      ],
      "name": "1894-1P.obj.cleaner.materialmerger.gles"
    },
    {
      "mesh": 0,
      "name": "Object_2"
    },
    {
      "mesh": 1,
      "name": "Object_3"
    },
    {
      "mesh": 2,
      "name": "Object_4"
    },
    {
      "mesh": 3,
      "name": "Object_5"
    },
    {
      "mesh": 4,
      "name": "Object_6"
    }
  ],
  "scene": 0,
  "scenes": [
    {
      "name": "Sketchfab_Scene",
      "nodes": [
        0
      ]
    }
  ]
}
